<?xml version="1.0" encoding="UTF-8"?>
<!DOCTYPE svg PUBLIC "-//W3C//DTD SVG 1.1//EN" "http://www.w3.org/Graphics/SVG/1.1/DTD/svg11.dtd">
<!-- Creator: CorelDRAW 2020 (64-Bit) -->
<svg xmlns="http://www.w3.org/2000/svg" xml:space="preserve" width="100mm" height="23mm" version="1.1" style="shape-rendering:geometricPrecision; text-rendering:geometricPrecision; image-rendering:optimizeQuality; fill-rule:evenodd; clip-rule:evenodd"
viewBox="0 0 10000 2300"
 xmlns:xlink="http://www.w3.org/1999/xlink"
 xmlns:xodm="http://www.corel.com/coreldraw/odm/2003">
 <defs>
  <style type="text/css">
   <![CDATA[
    .fil0 {fill:#fff;fill-rule:nonzero}
   ]]>
  </style>
 </defs>
 <g id="Слой_x0020_1">
  <metadata id="CorelCorpID_0Corel-Layer"/>
  <path class="fil0" d="M1648.84 2037.66c68.58,0 124.91,56.33 124.91,124.91 0,68.61 -56.26,124.9 -124.91,124.9l-1527.73 0c-68.9,0 -124.91,-56.01 -124.91,-124.9l0 -1389.8c0,-68.82 56.08,-124.9 124.91,-124.9l1486.95 0c68.58,0 124.9,56.32 124.9,124.9 0,68.62 -56.25,124.91 -124.9,124.91l-1362.05 0 0 421.49 1267.27 0c68.58,0 124.91,56.32 124.91,124.9 0,68.62 -56.26,124.91 -124.91,124.91l-1267.27 0 0 468.68 1402.83 0zm8168.23 -1602.22l-103.74 -87.06 -82.86 -0.04 0 65.59c0,7.84 -3.21,14.98 -8.38,20.14 -5.16,5.17 -12.29,8.38 -20.14,8.38 -7.87,0 -15,-3.2 -20.16,-8.36 -5.16,-5.16 -8.36,-12.29 -8.36,-20.16l0 -229.19c0,-15.7 12.81,-28.52 28.52,-28.52l166.2 0c25.39,0 50.01,10.21 67.96,28.16 17.94,17.95 28.15,42.57 28.15,67.95 0,25.41 -10.19,49.99 -28.15,67.96 -10.95,10.95 -24.59,19.14 -39.36,23.75 17.21,14.45 42.52,33.25 57.68,48.41 11.62,10.12 13.04,27.92 3.15,39.75l-0.38 0.43c-10.12,11.61 -27.91,13.03 -39.73,3.14l-0.4 -0.33zm95.99 -336.84c51.37,51.37 83.14,122.34 83.14,200.74 0,78.38 -31.77,149.36 -83.14,200.73 -51.37,51.37 -122.34,83.14 -200.73,83.14 -78.39,0 -149.37,-31.77 -200.74,-83.14 -51.37,-51.37 -83.14,-122.35 -83.14,-200.73 0,-78.4 31.77,-149.37 83.14,-200.74 51.37,-51.37 122.35,-83.14 200.74,-83.14 78.39,0 149.36,31.77 200.73,83.14zm-39.48 39.48c-41.26,-41.27 -98.28,-66.8 -161.25,-66.8 -62.98,0 -120,25.53 -161.26,66.8 -41.27,41.26 -66.8,98.28 -66.8,161.26 0,62.97 25.53,119.99 66.8,161.25 41.26,41.27 98.28,66.8 161.26,66.8 62.97,0 119.99,-25.53 161.25,-66.8 41.27,-41.27 66.8,-98.28 66.8,-161.25 0,-62.98 -25.53,-120 -66.8,-161.26zm-243.11 153.44l137.68 0c21.57,-0.04 39.07,-17.62 39.07,-39.19 0,-21.6 -17.46,-39.07 -39.07,-39.07l-137.68 0 0 78.26zm-7030.63 1871.05c0,68.61 -56.26,124.9 -124.91,124.9 -68.89,0 -124.9,-56.01 -124.9,-124.9l0 -1389.8c0,-68.82 56.08,-124.9 124.9,-124.9l1007.86 0c141.73,0 277.89,56.43 378.12,156.66 100.13,100.12 156.67,236.54 156.67,378.12 0,141.72 -56.44,277.89 -156.67,378.12 -100.12,100.12 -236.53,156.66 -378.12,156.66l-882.95 -0.46 0 445.6zm0 -1264.89l0 570.47 882.95 -0.04c156.35,-0.28 284.97,-127.35 284.97,-285.46 0,-157.59 -127.45,-284.97 -284.97,-284.97l-882.95 0zm5002.93 1360.55c-52.57,43.97 -131.7,36.89 -175.68,-15.65 -44,-52.57 -36.89,-131.7 15.65,-175.68l742.26 -622.83 -686.03 -575.63c-52.54,-43.98 -59.63,-123.11 -15.65,-175.68 43.97,-52.54 123.1,-59.66 175.67,-15.65l720.06 604.17 720.02 -604.17c52.57,-44.01 131.7,-36.89 175.68,15.65 44,52.57 36.89,131.7 -15.65,175.68l-686.03 575.63 742.25 622.83c52.54,43.98 59.66,123.11 15.65,175.68 -43.97,52.54 -123.1,59.66 -175.68,15.65l-776.24 -651.37 -776.28 651.37zm-742.08 -95.66c0,68.61 -56.25,124.9 -124.9,124.9 -68.9,0 -124.91,-56.01 -124.91,-124.9l0 -1389.8c0,-68.82 56.08,-124.9 124.91,-124.9 68.58,0 124.9,56.32 124.9,124.9l0 1389.8zm-2305.96 -1389.8c0,-68.82 56.08,-124.9 124.91,-124.9 68.58,0 124.91,56.32 124.91,124.9l0 1264.89 1235.43 0c68.58,0 124.91,56.33 124.91,124.91 0,68.61 -56.26,124.9 -124.91,124.9l-1360.34 0c-68.9,0 -124.91,-56.01 -124.91,-124.9l0 -1389.8z"/>
 </g>
</svg>
